<?xml version="1.0" encoding="UTF-8" standalone="no"?>
<!-- Created with Inkscape (http://www.inkscape.org/) -->

<svg
   width="1022.8"
   height="477.46042"
   version="1.1"
   viewBox="0 0 1022.8 477.46043"
   xml:space="preserve"
   id="svg14"
   sodipodi:docname="logo2.svg"
   inkscape:version="1.4.2 (1:1.4.2+202505120737+ebf0e940d0)"
   xmlns:inkscape="http://www.inkscape.org/namespaces/inkscape"
   xmlns:sodipodi="http://sodipodi.sourceforge.net/DTD/sodipodi-0.dtd"
   xmlns="http://www.w3.org/2000/svg"
   xmlns:svg="http://www.w3.org/2000/svg"><defs
     id="defs14" /><sodipodi:namedview
     id="namedview14"
     pagecolor="#ffffff"
     bordercolor="#000000"
     borderopacity="0.25"
     inkscape:showpageshadow="2"
     inkscape:pageopacity="0.0"
     inkscape:pagecheckerboard="0"
     inkscape:deskcolor="#d1d1d1"
     inkscape:zoom="0.42725571"
     inkscape:cx="567.5758"
     inkscape:cy="614.38617"
     inkscape:window-width="2560"
     inkscape:window-height="1403"
     inkscape:window-x="0"
     inkscape:window-y="0"
     inkscape:window-maximized="1"
     inkscape:current-layer="g14" /><g
     id="g14"><g
       transform="translate(8)"
       font-family="Goldplay"
       font-weight="300"
       stroke-linejoin="round"
       stroke-width="1.8201"
       id="g3" /><g
       id="g15"
       transform="translate(39.149013,-111.10609)"><path
         style="font-weight:600;font-size:155.66px;line-height:1.25;text-align:center;text-anchor:middle;fill:#89939f"
         d="m 386.43593,315.74594 q -9.04469,0 -17.48135,-3.26825 -8.43665,-3.26825 -13.37703,-8.58866 -4.56035,-4.33233 -0.30402,-8.74067 l 2.6602,-2.96423 q 4.02832,-4.40834 8.66467,-0.45604 9.12071,7.98062 19.60952,7.98062 5.01638,0 8.05662,-2.05216 3.04023,-2.12816 3.04023,-5.47242 0,-1.67213 -0.76006,-3.04024 -0.68405,-1.3681 -1.59612,-2.28017 -0.83607,-0.91207 -2.81222,-1.97615 -1.90014,-1.06409 -3.11624,-1.59613 -1.14009,-0.53204 -3.72429,-1.52012 -0.98807,-0.38002 -1.52011,-0.60804 -3.49627,-1.2161 -5.54843,-1.90015 -2.05216,-0.76006 -5.2444,-2.12816 -3.11625,-1.36811 -5.01639,-2.5842 -1.82414,-1.2161 -4.10432,-3.04024 -2.28017,-1.90014 -3.49627,-3.8763 -1.21609,-1.97615 -2.05216,-4.71236 -0.83606,-2.73621 -0.83606,-5.85245 0,-10.56481 8.05662,-16.8733 8.05662,-6.38449 21.50966,-6.38449 7.60059,0 14.74514,2.50819 7.22055,2.43219 11.7049,6.68852 2.28018,1.97615 2.43219,3.9523 0.15201,1.90015 -2.12817,4.94038 l -2.20417,2.81222 q -3.80029,4.33233 -8.51265,0.76006 -7.52458,-6.08047 -16.03724,-6.08047 -4.48435,0 -7.14455,1.82414 -2.66021,1.74813 -2.66021,4.71236 0,0.83607 0.22802,1.59613 0.22802,0.68405 0.76006,1.3681 0.60805,0.68405 1.06408,1.21609 0.53204,0.53205 1.59612,1.14009 1.14009,0.60805 1.90015,1.06408 0.76006,0.38003 2.28018,0.98808 1.52011,0.60805 2.43218,0.98808 0.91208,0.38003 2.81222,1.14008 1.97615,0.68406 2.96423,1.06409 4.56035,1.82414 7.60059,3.34425 3.04023,1.44412 6.38449,3.72429 3.34426,2.28018 5.2444,4.71237 1.97616,2.43218 3.26826,5.92845 1.29209,3.49627 1.29209,7.67659 0,11.02085 -8.43665,17.48135 -8.36064,6.38449 -22.19371,6.38449 z m 97.81954,-11.7049 q 1.90015,3.64828 -2.6602,6.68852 -6.99254,5.01638 -17.40534,5.01638 -11.85692,0 -19.60951,-7.14455 -7.7526,-7.14455 -7.7526,-20.90161 v -37.01485 h -7.67659 q -2.81222,0 -4.48435,-1.52012 -1.59612,-1.59612 -1.59612,-4.40834 v -3.8763 q 0,-2.73621 1.59612,-4.25633 1.67213,-1.52011 4.48435,-1.52011 h 7.67659 v -19.60952 q 0,-4.94038 5.85245,-6.08046 l 8.43665,-1.74814 q 3.04023,-0.68405 4.63636,1.06408 1.59612,1.67213 1.59612,4.86438 v 21.50966 h 17.25333 q 2.81222,0 4.40834,1.52011 1.67213,1.52012 1.67213,4.25633 v 3.8763 q 0,2.81222 -1.67213,4.40834 -1.59612,1.52012 -4.40834,1.52012 H 457.3494 v 35.11471 q 0,12.00892 10.26079,12.00892 2.88822,0 7.14455,-2.35618 1.67213,-1.21609 2.96423,-1.06408 1.36811,0.15201 2.12816,0.91207 0.83607,0.76006 1.59613,2.20417 z m 43.24735,-70.22941 q 6.00446,0 11.17286,1.21609 5.2444,1.14009 9.65274,3.72429 4.48435,2.50819 7.60059,6.30848 3.19224,3.72429 4.94038,9.19671 1.82414,5.47243 1.82414,12.23695 v 41.11917 q 0,2.88822 -1.52012,4.48434 -1.44411,1.59613 -4.25633,1.59613 h -4.94038 q -2.81221,0 -4.40834,-1.59613 -1.52011,-1.67213 -1.52011,-4.48434 v -2.66021 q -11.02085,10.79283 -25.68998,10.79283 -13.68106,0 -22.11771,-6.91653 -8.36064,-6.91653 -8.36064,-18.1654 0,-11.93292 9.1207,-19.15348 9.19671,-7.29656 24.16986,-7.29656 10.10878,0 20.21756,4.18032 v -4.18032 q 0,-6.76452 -4.63636,-10.71683 -4.56035,-3.9523 -12.61697,-3.9523 -10.94484,0 -19.91353,6.08047 -4.78837,2.88822 -7.82861,-2.20417 l -1.3681,-2.43219 q -3.26826,-5.54843 1.67213,-8.58866 12.76898,-8.58866 28.80622,-8.58866 z m -2.66021,67.72122 q 7.67659,0 13.30103,-4.10432 5.70044,-4.10431 5.70044,-9.72875 v -5.77644 q -9.12071,-4.48435 -17.86138,-4.48435 -7.37257,0 -11.85692,3.42026 -4.48434,3.42027 -4.48434,9.0447 0,5.24441 4.10432,8.43665 4.18032,3.19225 11.09685,3.19225 z m 90.06694,-67.72122 q 6.00447,0 11.17287,1.21609 5.2444,1.14009 9.65274,3.72429 4.48435,2.50819 7.60059,6.30848 3.19224,3.72429 4.94038,9.19671 1.82414,5.47243 1.82414,12.23695 v 41.11917 q 0,2.88822 -1.52012,4.48434 -1.44411,1.59613 -4.25633,1.59613 h -4.94038 q -2.81221,0 -4.40834,-1.59613 -1.52012,-1.67213 -1.52012,-4.48434 v -2.66021 q -11.02085,10.79283 -25.68998,10.79283 -13.68105,0 -22.1177,-6.91653 -8.36065,-6.91653 -8.36065,-18.1654 0,-11.93292 9.12071,-19.15348 9.19671,-7.29656 24.16986,-7.29656 10.10878,0 20.21756,4.18032 v -4.18032 q 0,-6.76452 -4.63636,-10.71683 -4.56035,-3.9523 -12.61697,-3.9523 -10.94484,0 -19.91354,6.08047 -4.78837,2.88822 -7.8286,-2.20417 l -1.36811,-2.43219 q -3.26825,-5.54843 1.67213,-8.58866 12.76899,-8.58866 28.80622,-8.58866 z m -2.6602,67.72122 q 7.67659,0 13.30103,-4.10432 5.70043,-4.10431 5.70043,-9.72875 v -5.77644 q -9.1207,-4.48435 -17.86137,-4.48435 -7.37257,0 -11.85692,3.42026 -4.48434,3.42027 -4.48434,9.0447 0,5.24441 4.10431,8.43665 4.18033,3.19225 11.09686,3.19225 z m 90.06694,-67.72122 q 6.00447,0 11.17286,1.21609 5.24441,1.14009 9.65275,3.72429 4.48434,2.50819 7.60059,6.30848 3.19224,3.72429 4.94038,9.19671 1.82414,5.47243 1.82414,12.23695 v 41.11917 q 0,2.88822 -1.52012,4.48434 -1.44411,1.59613 -4.25633,1.59613 h -4.94038 q -2.81222,0 -4.40834,-1.59613 -1.52012,-1.67213 -1.52012,-4.48434 v -2.66021 q -11.02085,10.79283 -25.68998,10.79283 -13.68105,0 -22.1177,-6.91653 -8.36065,-6.91653 -8.36065,-18.1654 0,-11.93292 9.12071,-19.15348 9.1967,-7.29656 24.16986,-7.29656 10.10878,0 20.21756,4.18032 v -4.18032 q 0,-6.76452 -4.63636,-10.71683 -4.56035,-3.9523 -12.61697,-3.9523 -10.94485,0 -19.91354,6.08047 -4.78837,2.88822 -7.8286,-2.20417 l -1.36811,-2.43219 q -3.26825,-5.54843 1.67213,-8.58866 12.76899,-8.58866 28.80622,-8.58866 z m -2.6602,67.72122 q 7.67659,0 13.30102,-4.10432 5.70044,-4.10431 5.70044,-9.72875 v -5.77644 q -9.1207,-4.48435 -17.86137,-4.48435 -7.37257,0 -11.85692,3.42026 -4.48434,3.42027 -4.48434,9.0447 0,5.24441 4.10431,8.43665 4.18032,3.19225 11.09686,3.19225 z m 126.32174,6.23248 q 1.90014,2.43219 0.91207,4.18032 -0.98808,1.74814 -3.8763,1.74814 h -12.23695 q -2.58419,0 -4.33233,-1.2921 -1.67213,-1.36811 -3.9523,-4.48435 l -14.97316,-20.52158 -14.89715,20.52158 q -2.28017,3.11624 -4.02831,4.48435 -1.67213,1.2921 -4.25633,1.2921 h -10.56481 q -2.81222,0 -3.80029,-1.67213 -0.98808,-1.67213 0.83606,-4.25633 l 25.994,-33.29057 -25.84199,-33.59459 q -1.82414,-2.43219 -0.83606,-4.10431 0.98807,-1.67213 3.80029,-1.67213 h 12.31295 q 2.5842,0 4.25633,1.3681 1.67213,1.2921 3.9523,4.40834 l 14.97316,20.52158 14.82114,-20.52158 q 2.12816,-3.11624 3.80029,-4.40834 1.67213,-1.3681 4.40834,-1.3681 h 10.41281 q 2.88822,0 3.8763,1.67213 0.98807,1.67212 -0.91207,4.10431 l -25.68999,33.59459 z"
         id="text1"
         aria-label="staaax"
         transform="translate(8)" /><g
         id="text3"
         style="font-size:87.56px;line-height:0.85;opacity:0.56"
         aria-label="optical stacksin sax"
         transform="translate(8)"><path
           d="m 377.55352,397.89682 c 13.30912,0 23.2034,-9.98184 23.2034,-22.94072 0,-12.95888 -9.89428,-22.94072 -23.2034,-22.94072 -13.30912,0 -23.2034,9.98184 -23.2034,22.94072 0,12.95888 9.89428,22.94072 23.2034,22.94072 z m 0,-2.88948 c -11.47036,0 -19.96368,-8.66844 -19.96368,-20.05124 0,-11.3828 8.49332,-20.05124 19.96368,-20.05124 11.55792,0 19.96368,8.66844 19.96368,20.05124 0,11.3828 -8.40576,20.05124 -19.96368,20.05124 z m 56.73885,-42.99196 c -8.49332,0 -15.23544,4.378 -18.8254,11.03256 v -8.756 c 0,-0.78804 -0.4378,-1.40096 -1.22584,-1.40096 h -0.70048 c -0.70048,0 -1.22584,0.61292 -1.22584,1.40096 v 57.26424 c 0,0.78804 0.52536,1.3134 1.22584,1.3134 h 0.70048 c 0.78804,0 1.22584,-0.52536 1.22584,-1.3134 V 386.7767 c 3.58996,6.65456 10.24452,11.12012 18.8254,11.12012 12.95888,0 21.97756,-10.0694 21.97756,-22.94072 0,-12.87132 -9.01868,-22.94072 -21.97756,-22.94072 z m -0.17512,42.99196 c -10.85744,0 -18.91296,-8.23064 -18.91296,-20.05124 0,-11.90816 8.14308,-20.05124 18.91296,-20.05124 11.20768,0 18.91296,8.93112 18.91296,20.05124 0,11.20768 -7.61772,20.05124 -18.91296,20.05124 z m 54.1121,-1.22584 -0.17512,-0.35024 c -0.52536,-0.70048 -1.13828,-0.78804 -1.92632,-0.26268 -1.66364,1.22584 -3.23972,1.83876 -5.60384,1.83876 -5.6914,0 -8.756,-3.41484 -8.756,-9.80672 V 355.6929 h 13.134 c 0.78804,0 1.3134,-0.4378 1.3134,-1.22584 v -0.35024 c 0,-0.78804 -0.52536,-1.22584 -1.3134,-1.22584 h -13.134 v -14.62252 c 0,-0.8756 -0.35024,-1.3134 -1.22584,-1.05072 l -0.78804,0.26268 c -0.8756,0.17512 -1.05072,0.61292 -1.05072,1.22584 v 14.18472 h -6.65456 c -0.70048,0 -1.3134,0.4378 -1.3134,1.22584 v 0.35024 c 0,0.78804 0.61292,1.22584 1.3134,1.22584 h 6.65456 v 29.68284 c 0,8.05552 4.29044,12.52108 11.64548,12.52108 2.88948,0 5.07848,-0.78804 7.26748,-2.36412 0.52536,-0.26268 1.13828,-0.96316 0.61292,-1.7512 z m 9.10624,-50.95992 c 1.92632,0 3.5024,-1.48852 3.5024,-3.41484 0,-1.92632 -1.57608,-3.41484 -3.5024,-3.41484 -1.92632,0 -3.41484,1.48852 -3.41484,3.41484 0,1.92632 1.48852,3.41484 3.41484,3.41484 z m -0.26268,54.02452 h 0.61292 c 0.78804,0 1.22584,-0.52536 1.22584,-1.3134 v -41.24076 c 0,-0.78804 -0.4378,-1.40096 -1.22584,-1.40096 h -0.61292 c -0.78804,0 -1.22584,0.61292 -1.22584,1.40096 v 41.24076 c 0,0.78804 0.4378,1.3134 1.22584,1.3134 z m 36.4249,1.05072 c 7.26748,0 13.39668,-2.88948 17.86224,-8.40576 0.52536,-0.61292 0.70048,-1.22584 0.0876,-1.83876 l -0.26268,-0.26268 c -0.52536,-0.52536 -1.22584,-0.70048 -1.92632,0 -4.11532,5.07848 -9.45648,7.61772 -15.58568,7.61772 -11.55792,0 -19.61344,-8.756 -19.61344,-20.05124 0,-11.3828 8.14308,-20.05124 19.61344,-20.05124 6.1292,0 11.47036,2.53924 15.58568,7.61772 0.70048,0.70048 1.40096,0.52536 1.92632,0 l 0.26268,-0.26268 c 0.61292,-0.61292 0.4378,-1.22584 -0.0876,-1.83876 -4.46556,-5.51628 -10.59476,-8.40576 -17.86224,-8.40576 -13.134,0 -22.67804,9.98184 -22.67804,22.94072 0,12.95888 9.54404,22.94072 22.67804,22.94072 z m 44.83077,-45.88144 c -6.39188,0 -11.99572,2.36412 -16.98664,6.91724 -0.61292,0.52536 -0.8756,1.3134 -0.26268,2.01388 l 0.17512,0.17512 c 0.4378,0.52536 1.05072,0.78804 1.83876,0.17512 4.46556,-4.11532 9.6316,-6.39188 15.14788,-6.39188 8.58088,0 14.18472,5.42872 14.18472,13.134 v 6.21676 c -4.20288,-2.36412 -9.89428,-4.02776 -15.58568,-4.02776 -10.59476,0 -17.77468,5.51628 -17.77468,13.92204 0,8.23064 6.74212,13.74692 16.6364,13.74692 6.91724,0 13.30912,-2.97704 16.72396,-8.40576 v 6.04164 c 0,0.78804 0.52536,1.3134 1.22584,1.3134 h 0.61292 c 0.8756,0 1.22584,-0.52536 1.22584,-1.3134 v -27.05604 c 0,-9.98184 -6.567,-16.46128 -17.16176,-16.46128 z m -2.45168,42.99196 c -8.14308,0 -13.5718,-4.378 -13.5718,-10.76988 0,-6.74212 5.86652,-11.20768 14.62252,-11.20768 5.77896,0 11.8206,2.10144 15.49812,4.29044 v 4.02776 c 0,8.66844 -8.05552,13.65936 -16.54884,13.65936 z m 35.54934,1.83876 h 0.70048 c 0.78804,0 1.22584,-0.52536 1.22584,-1.3134 v -59.89104 c 0,-0.8756 -0.4378,-1.3134 -1.3134,-1.05072 l -0.78804,0.26268 c -0.8756,0.26268 -1.05072,0.61292 -1.05072,1.22584 v 59.45324 c 0,0.78804 0.4378,1.3134 1.22584,1.3134 z m 51.22252,1.05072 c 8.756,0 14.53496,-4.72824 14.53496,-11.8206 0,-9.01868 -8.05552,-11.47036 -15.7608,-14.4474 -4.64068,-1.92632 -8.756,-4.11532 -8.756,-8.84356 0,-4.72824 4.20288,-7.8804 9.98184,-7.8804 4.55312,0 7.96796,1.48852 10.945,5.51628 0.61292,0.78804 1.3134,0.61292 1.83876,0.17512 l 0.35024,-0.26268 c 0.70048,-0.61292 0.4378,-1.3134 0,-1.83876 -3.15216,-4.46556 -7.8804,-6.47944 -13.04644,-6.47944 -7.4426,0 -13.22156,4.29044 -13.22156,11.03256 0,6.21676 5.2536,8.93112 10.33208,11.12012 6.74212,2.71436 14.18472,4.90336 14.18472,11.90816 0,5.51628 -4.55312,8.93112 -11.55792,8.93112 -5.86652,0 -10.0694,-2.10144 -12.95888,-6.82968 -0.52536,-0.78804 -1.13828,-0.78804 -1.83876,-0.35024 l -0.35024,0.26268 c -0.78804,0.52536 -0.70048,1.13828 -0.26268,1.83876 3.15216,5.2536 8.84356,7.96796 15.58568,7.96796 z m 46.49437,-4.11532 -0.17512,-0.35024 c -0.52536,-0.70048 -1.13828,-0.78804 -1.92632,-0.26268 -1.66364,1.22584 -3.23972,1.83876 -5.60384,1.83876 -5.6914,0 -8.756,-3.41484 -8.756,-9.80672 V 355.6929 h 13.134 c 0.78804,0 1.3134,-0.4378 1.3134,-1.22584 v -0.35024 c 0,-0.78804 -0.52536,-1.22584 -1.3134,-1.22584 h -13.134 v -14.62252 c 0,-0.8756 -0.35024,-1.3134 -1.22584,-1.05072 l -0.78804,0.26268 c -0.8756,0.17512 -1.05072,0.61292 -1.05072,1.22584 v 14.18472 h -6.65456 c -0.70048,0 -1.3134,0.4378 -1.3134,1.22584 v 0.35024 c 0,0.78804 0.61292,1.22584 1.3134,1.22584 h 6.65456 v 29.68284 c 0,8.05552 4.29044,12.52108 11.64548,12.52108 2.88948,0 5.07848,-0.78804 7.26748,-2.36412 0.52536,-0.26268 1.13828,-0.96316 0.61292,-1.7512 z m 23.20341,-41.76612 c -6.39188,0 -11.99572,2.36412 -16.98664,6.91724 -0.61292,0.52536 -0.8756,1.3134 -0.26268,2.01388 l 0.17512,0.17512 c 0.4378,0.52536 1.05072,0.78804 1.83876,0.17512 4.46556,-4.11532 9.6316,-6.39188 15.14788,-6.39188 8.58088,0 14.18472,5.42872 14.18472,13.134 v 6.21676 c -4.20288,-2.36412 -9.89428,-4.02776 -15.58568,-4.02776 -10.59476,0 -17.77468,5.51628 -17.77468,13.92204 0,8.23064 6.74212,13.74692 16.6364,13.74692 6.91724,0 13.30912,-2.97704 16.72396,-8.40576 v 6.04164 c 0,0.78804 0.52536,1.3134 1.22584,1.3134 h 0.61292 c 0.8756,0 1.22584,-0.52536 1.22584,-1.3134 v -27.05604 c 0,-9.98184 -6.567,-16.46128 -17.16176,-16.46128 z m -2.45168,42.99196 c -8.14308,0 -13.5718,-4.378 -13.5718,-10.76988 0,-6.74212 5.86652,-11.20768 14.62252,-11.20768 5.77896,0 11.8206,2.10144 15.49812,4.29044 v 4.02776 c 0,8.66844 -8.05552,13.65936 -16.54884,13.65936 z m 53.32401,2.88948 c 7.26748,0 13.39668,-2.88948 17.86224,-8.40576 0.52536,-0.61292 0.70048,-1.22584 0.0876,-1.83876 l -0.26268,-0.26268 c -0.52536,-0.52536 -1.22584,-0.70048 -1.92632,0 -4.11532,5.07848 -9.45648,7.61772 -15.58568,7.61772 -11.55792,0 -19.61344,-8.756 -19.61344,-20.05124 0,-11.3828 8.14308,-20.05124 19.61344,-20.05124 6.1292,0 11.47036,2.53924 15.58568,7.61772 0.70048,0.70048 1.40096,0.52536 1.92632,0 l 0.26268,-0.26268 c 0.61292,-0.61292 0.4378,-1.22584 -0.0876,-1.83876 -4.46556,-5.51628 -10.59476,-8.40576 -17.86224,-8.40576 -13.134,0 -22.67804,9.98184 -22.67804,22.94072 0,12.95888 9.54404,22.94072 22.67804,22.94072 z m 61.8174,-2.45168 -18.91296,-22.94072 18.12492,-18.21248 c 0.61292,-0.61292 0.26268,-1.40096 -0.52536,-1.40096 h -1.22584 c -0.78804,0 -1.22584,0.4378 -1.92632,1.13828 l -25.21728,25.30484 v -43.69244 c 0,-0.8756 -0.4378,-1.3134 -1.22584,-1.05072 l -0.8756,0.26268 c -0.78804,0.26268 -1.05072,0.61292 -1.05072,1.22584 v 59.45324 c 0,0.78804 0.52536,1.3134 1.22584,1.3134 h 0.70048 c 0.78804,0 1.22584,-0.52536 1.22584,-1.3134 v -12.17084 l 8.66844,-8.756 17.42444,21.18952 c 0.70048,0.78804 1.13828,1.05072 1.92632,1.05072 h 1.05072 c 0.8756,0 1.22584,-0.61292 0.61292,-1.40096 z m 19.61334,2.45168 c 8.756,0 14.53496,-4.72824 14.53496,-11.8206 0,-9.01868 -8.05552,-11.47036 -15.7608,-14.4474 -4.64068,-1.92632 -8.756,-4.11532 -8.756,-8.84356 0,-4.72824 4.20288,-7.8804 9.98184,-7.8804 4.55312,0 7.96796,1.48852 10.945,5.51628 0.61292,0.78804 1.3134,0.61292 1.83876,0.17512 l 0.35024,-0.26268 c 0.70048,-0.61292 0.4378,-1.3134 0,-1.83876 -3.15216,-4.46556 -7.8804,-6.47944 -13.04644,-6.47944 -7.4426,0 -13.22156,4.29044 -13.22156,11.03256 0,6.21676 5.2536,8.93112 10.33208,11.12012 6.74212,2.71436 14.18472,4.90336 14.18472,11.90816 0,5.51628 -4.55312,8.93112 -11.55792,8.93112 -5.86652,0 -10.0694,-2.10144 -12.95888,-6.82968 -0.52536,-0.78804 -1.13828,-0.78804 -1.83876,-0.35024 l -0.35024,0.26268 c -0.78804,0.52536 -0.70048,1.13828 -0.26268,1.83876 3.15216,5.2536 8.84356,7.96796 15.58568,7.96796 z"
           id="path14" /><path
           d="m 359.60372,417.24742 c 1.92632,0 3.5024,-1.48852 3.5024,-3.41484 0,-1.92632 -1.57608,-3.41484 -3.5024,-3.41484 -1.92632,0 -3.41484,1.48852 -3.41484,3.41484 0,1.92632 1.48852,3.41484 3.41484,3.41484 z m -0.26268,54.02452 h 0.61292 c 0.78804,0 1.22584,-0.52536 1.22584,-1.3134 v -41.24076 c 0,-0.78804 -0.4378,-1.40096 -1.22584,-1.40096 h -0.61292 c -0.78804,0 -1.22584,0.61292 -1.22584,1.40096 v 41.24076 c 0,0.78804 0.4378,1.3134 1.22584,1.3134 z m 36.51246,-44.83072 c -7.53016,0 -13.30912,3.67752 -16.28616,9.28136 v -7.0048 c 0,-0.78804 -0.4378,-1.40096 -1.22584,-1.40096 h -0.61292 c -0.78804,0 -1.22584,0.61292 -1.22584,1.40096 v 41.24076 c 0,0.78804 0.4378,1.3134 1.22584,1.3134 h 0.70048 c 0.78804,0 1.22584,-0.52536 1.22584,-1.3134 V 444.6537 c 0,-8.756 6.30432,-15.323 15.84836,-15.323 8.84356,0 14.79764,5.86652 14.79764,14.79764 v 25.8302 c 0,0.78804 0.4378,1.3134 1.22584,1.3134 h 0.61292 c 0.8756,0 1.22584,-0.52536 1.22584,-1.3134 v -26.00532 c 0,-10.59476 -7.09236,-17.512 -17.512,-17.512 z m 66.02025,45.88144 c 8.756,0 14.53496,-4.72824 14.53496,-11.8206 0,-9.01868 -8.05552,-11.47036 -15.7608,-14.4474 -4.64068,-1.92632 -8.756,-4.11532 -8.756,-8.84356 0,-4.72824 4.20288,-7.8804 9.98184,-7.8804 4.55312,0 7.96796,1.48852 10.945,5.51628 0.61292,0.78804 1.3134,0.61292 1.83876,0.17512 l 0.35024,-0.26268 c 0.70048,-0.61292 0.4378,-1.3134 0,-1.83876 -3.15216,-4.46556 -7.8804,-6.47944 -13.04644,-6.47944 -7.4426,0 -13.22156,4.29044 -13.22156,11.03256 0,6.21676 5.2536,8.93112 10.33208,11.12012 6.74212,2.71436 14.18472,4.90336 14.18472,11.90816 0,5.51628 -4.55312,8.93112 -11.55792,8.93112 -5.86652,0 -10.0694,-2.10144 -12.95888,-6.82968 -0.52536,-0.78804 -1.13828,-0.78804 -1.83876,-0.35024 l -0.35024,0.26268 c -0.78804,0.52536 -0.70048,1.13828 -0.26268,1.83876 3.15216,5.2536 8.84356,7.96796 15.58568,7.96796 z m 41.76609,-45.88144 c -6.39188,0 -11.99572,2.36412 -16.98664,6.91724 -0.61292,0.52536 -0.8756,1.3134 -0.26268,2.01388 l 0.17512,0.17512 c 0.4378,0.52536 1.05072,0.78804 1.83876,0.17512 4.46556,-4.11532 9.6316,-6.39188 15.14788,-6.39188 8.58088,0 14.18472,5.42872 14.18472,13.134 v 6.21676 c -4.20288,-2.36412 -9.89428,-4.02776 -15.58568,-4.02776 -10.59476,0 -17.77468,5.51628 -17.77468,13.92204 0,8.23064 6.74212,13.74692 16.6364,13.74692 6.91724,0 13.30912,-2.97704 16.72396,-8.40576 v 6.04164 c 0,0.78804 0.52536,1.3134 1.22584,1.3134 h 0.61292 c 0.8756,0 1.22584,-0.52536 1.22584,-1.3134 V 442.9025 c 0,-9.98184 -6.567,-16.46128 -17.16176,-16.46128 z m -2.45168,42.99196 c -8.14308,0 -13.5718,-4.378 -13.5718,-10.76988 0,-6.74212 5.86652,-11.20768 14.62252,-11.20768 5.77896,0 11.8206,2.10144 15.49812,4.29044 v 4.02776 c 0,8.66844 -8.05552,13.65936 -16.54884,13.65936 z m 65.49487,0.52536 -16.72396,-20.83928 16.02348,-20.40148 c 0.4378,-0.52536 0.17512,-1.40096 -0.61292,-1.40096 h -1.22584 c -0.78804,0 -1.13828,0.52536 -1.7512,1.22584 l -14.18472,18.3876 -14.18472,-18.3876 c -0.52536,-0.70048 -0.8756,-1.22584 -1.7512,-1.22584 h -1.3134 c -0.78804,0 -1.05072,0.8756 -0.61292,1.40096 l 15.7608,20.40148 -16.46128,20.83928 c -0.52536,0.52536 -0.17512,1.3134 0.61292,1.3134 h 1.13828 c 0.8756,0 1.22584,-0.4378 1.7512,-1.22584 l 14.71008,-18.65028 15.06032,18.65028 c 0.61292,0.78804 0.96316,1.22584 1.83876,1.22584 h 1.3134 c 0.78804,0 1.05072,-0.78804 0.61292,-1.3134 z"
           id="path15" /></g><g
         transform="matrix(0.87581,0,0,0.87581,26.631,47.55)"
         id="g13"><g
           transform="translate(-12,114.44)"
           id="g5"><g
             fill="#b2bdbf"
             id="g4"><rect
               transform="matrix(0.92923,0.3695,-0.92923,0.3695,0,0)"
               x="473.09"
               y="267.82001"
               width="180.37"
               height="180.37"
               ry="44.014"
               id="rect3" /><path
               d="m 47.039,340.38 v -39.991 h 287.4 l -0.13273,42.23 z"
               id="path3" /></g><rect
             transform="matrix(0.92923,0.3695,-0.92923,0.3695,0,0)"
             x="418.95999"
             y="213.69"
             width="180.37"
             height="180.37"
             ry="44.014"
             fill="#ffffff"
             id="rect4" /></g><g
           transform="translate(-12,56.234)"
           id="g7"><g
             fill="#b2bdbf"
             id="g6"><rect
               transform="matrix(0.92923,0.3695,-0.92923,0.3695,0,0)"
               x="473.09"
               y="267.82001"
               width="180.37"
               height="180.37"
               ry="44.014"
               id="rect5" /><path
               d="m 47.039,340.38 v -39.991 h 287.4 l -0.13273,42.23 z"
               id="path5" /></g><rect
             transform="matrix(0.92923,0.3695,-0.92923,0.3695,0,0)"
             x="418.95999"
             y="213.69"
             width="180.37"
             height="180.37"
             ry="44.014"
             fill="#ffffff"
             id="rect6" /></g><g
           transform="translate(-12,-4.3642)"
           id="g9"><g
             fill="#b2bdbf"
             id="g8"><rect
               transform="matrix(0.92923,0.3695,-0.92923,0.3695,0,0)"
               x="473.09"
               y="267.82001"
               width="180.37"
               height="180.37"
               ry="44.014"
               id="rect7" /><path
               d="m 47.039,340.38 v -39.991 h 287.4 l -0.13273,42.23 z"
               id="path7" /></g><rect
             transform="matrix(0.92923,0.3695,-0.92923,0.3695,0,0)"
             x="418.95999"
             y="213.69"
             width="180.37"
             height="180.37"
             ry="44.014"
             fill="#ffffff"
             id="rect8" /></g><g
           transform="translate(0,-24)"
           id="g12"><g
             transform="translate(0,-14.963)"
             fill="#3a7952"
             id="g11"><g
               fill="#b2bdbf"
               id="g10"><rect
                 transform="matrix(0.92923,0.3695,-0.92923,0.3695,0,0)"
                 x="431.45001"
                 y="239.09"
                 width="180.37"
                 height="180.37"
                 ry="44.014"
                 id="rect9" /><path
                 d="m 35.039,314.38 v -39.991 h 287.4 l -0.13273,42.23 z"
                 id="path9" /></g></g><rect
             transform="matrix(0.92923,0.3695,-0.92923,0.3695,0,0)"
             x="357.07001"
             y="164.72"
             width="180.37"
             height="180.37"
             ry="44.014"
             fill="#89939f"
             id="rect11" /></g></g></g></g></svg>
